<svg xmlns="http://www.w3.org/2000/svg" viewBox="0 0 735.5 93.7" xmlns:v="https://vecta.io/nano"><g fill="#1d4f90"><path d="M388.2 44.7h-2.1-2.2-3.3l1.7 4.4L370 81.6h1.9l4.2-11.1h14.2l4.1 11.1h8.1l-14.3-36.9zm1.3 24.1h-12.9l6.5-17.2.6 1.7 5.8 15.5zM721 44.7h-2.1-2.2-3.3l1.7 4.4-12.3 32.5h1.9l4.2-11.1h14.2l4.1 11.1h8.1L721 44.7zm1.2 24.1h-12.9l6.5-17.2.6 1.7 5.8 15.5zM202.9 62h-14.5V44.7h-7.6v37h7.6v-18h14.5v18h7.6v-37h-7.6zm27.3 1.5h13.2v-1.7h-13.2V46.5h16.2l.1-1.8h-23.9v37h24.1v-1.8h-16.5zm47.1-.3c-.9-.4-1.9-.7-3-.9.6-.2 1.2-.4 1.7-.7 1.8-.8 3.2-1.9 4.3-3.3a7.16 7.16 0 0 0 1.6-4.6c0-1.8-.5-3.5-1.5-4.8s-2.4-2.4-4.3-3.1c-1.8-.7-4.1-1.1-6.6-1.1h-13.2v36.9h12.2c3.3 0 6.1-.3 8.3-1s4-1.8 5.1-3.3c1.2-1.5 1.8-3.4 1.8-5.8 0-1.9-.5-3.6-1.6-5-1.2-1.3-2.7-2.5-4.8-3.3m-13.5-16.7h2.7c1.8 0 3.3.3 4.5 1 1.1.6 2 1.5 2.5 2.6s.8 2.5.8 4.1c0 1.4-.3 2.7-.8 3.9-.5 1.1-1.2 2.1-2.2 2.7s-2.1 1-3.5 1h-4V46.5zM274.9 76c-.5 1.2-1.3 2.2-2.4 2.9S270 80 268.3 80h-4.5V63.5h3.9c1.8 0 3.3.3 4.5.9s2 1.5 2.6 2.6c.6 1.2.9 2.7.9 4.5 0 1.7-.3 3.2-.8 4.5m47.6-1.8c-1.1 1.7-2.6 3.2-4.4 4.2-1.8 1.1-3.9 1.6-6.1 1.6-2.5 0-4.7-.7-6.5-2.2-1.9-1.4-3.3-3.5-4.3-6.1s-1.5-5.6-1.5-8.9c0-3.2.5-6.1 1.4-8.7s2.3-4.6 4.1-6.1c1.7-1.5 3.8-2.2 6.3-2.2 2 0 3.8.3 5.3.8s3 1.4 4.4 2.5l.4.4 1.1-1.4-.4-.3c-.9-.8-2-1.4-3.1-2s-2.4-1-3.8-1.3-2.8-.5-4.2-.5c-3.8 0-7.2.8-10.1 2.5-2.9 1.6-5.2 4-6.9 6.9-1.6 2.9-2.4 6.4-2.4 10.2 0 3.7.8 7 2.3 9.7 1.5 2.8 3.6 5 6.3 6.5 2.6 1.5 5.7 2.3 9 2.3 3.5 0 6.5-.6 8.8-1.8 2.4-1.2 4.4-3 5.9-5.4l.3-.5-1.5-.8-.4.6zm11.2-29.5h7.5v36.9h-7.5zm14.1 14.9l12.7-14.9h-2.2l-16.4 19 11.7 18h9.1zm83.7 22.1h7.5v-37h-13.3c-2.9 0-5.3.4-7.3 1.2s-3.5 1.9-4.5 3.3-1.5 3.2-1.5 5.1c0 2.2.6 4 1.7 5.6 1.1 1.5 2.8 2.7 5 3.5.8.3 1.7.5 2.7.7l-2.5.6-9.8 16.9h9l8.2-17.1h.3 3.4l.7-1.6h-3.3-.4c-1.3 0-3.2-.5-4-1-1.1-.7-1.9-1.6-2.4-2.8-.5-1.3-.7-2.8-.7-4.6 0-1.6.3-3 .8-4.2s1.3-2.1 2.4-2.8 2.6-1 4.5-1h3.5m40.8 35.2h7.6V46.5h14.6v35.2h7.5v-37h-29.7zm142.9-29.4l-14.3 18.4v-26h-7.5v37l7.5-.1v-8.1l14.3-18.4v26.6h7.5v-37h-7.5zm16.8-5.9l11.8.1v35.2h7.5V46.5H663v-1.8h-30.9z"/><path d="M692.4 46.1c-2.1-.9-4.7-1.4-7.8-1.4h-12.3v36.9h7.5V46.5h2.7c1.7 0 3.1.4 4.4 1.1 1.2.7 2.2 1.8 2.8 3.1.7 1.4 1 3 1 4.9 0 2.1-.3 3.9-.9 5.3s-1.4 2.4-2.5 3.1-2.5 1-4.2 1h-3l.8 1.7h2.9c3 0 5.6-.4 7.8-1.3s4-2.2 5.2-3.8c1.2-1.7 1.8-3.7 1.8-6 0-2.2-.5-4.1-1.5-5.7s-2.6-2.9-4.7-3.8m-163.2-1.4h-2.1-2.2-3.3l1.7 4.4L511 81.6h1.9l4.2-11.1h14.2l4.1 11.1h8.1l-14.3-36.9zm1.3 24.1h-12.9l6.5-17.2.6 1.7 5.8 15.5z"/><path d="M554.8 44.7v1.7h4.9V50c0 7.2-.1 13-.5 17.5h0c-.4 4.3-1.5 7.1-3.2 8.5-1.6 1.3-3.6 1.2-5.3.9l-1-.1V82l.7.1c.7.1 1.3.1 1.9.1 1.9 0 3.3-.5 4.5-1.5 3.9-3.4 4.6-12.6 4.6-30.6v-3.6h12.7v35.2h7.5v-37h-26.8zM192.3 20.6l-1.3-.9c-.3-.2-.6-.3-.8-.4l.6-.3c.4-.2.7-.4 1.1-.7a2.73 2.73 0 0 0 .9-1.2c.3-.5.4-1.1.4-1.7 0-1.4-.6-2.6-1.7-3.5-1.1-1-2.6-1.4-4.4-1.4-.7 0-1.4.1-2.1.3a9.12 9.12 0 0 0-1.6.6c-.4.2-.8.5-1.2.8s-.6.5-.7.6-.2.2-.2.3l-.1.2 1.2 1.2.4-.4c.1-.1.3-.3.6-.5l.9-.6c.3-.2.8-.4 1.3-.5s1.1-.2 1.6-.2c1.4 0 2.5.3 3.3.9s1.1 1.4 1.1 2.3-.4 1.6-1.1 2.2c-.8.6-1.9.9-3.2.9h-2.4v1.7h2.4c1.5 0 2.7.4 3.6 1.1s1.3 1.6 1.3 2.7c0 1-.4 1.9-1.3 2.6s-2.1 1.1-3.6 1.1c-.7 0-1.3-.1-1.9-.2-.6-.2-1.1-.3-1.4-.5-.4-.2-.7-.4-1-.7-.4-.3-.5-.5-.6-.5-.1-.1-.1-.2-.2-.2l-.1-.2-1.3 1.2.4.4a6.53 6.53 0 0 0 .8.7c.4.3.8.5 1.2.8.5.3 1.1.5 1.8.7s1.5.3 2.3.3c2 0 3.6-.5 4.8-1.6 1.3-1.1 1.9-2.3 1.9-3.8 0-.7-.2-1.4-.4-2-.6-.8-.9-1.3-1.3-1.6m13.5-10l-7.9 18.2-.1.3h2l2.3-5.3h9.2l2.3 5.3h1.9l-8-18.5h-1.7zm4.7 11.5h-7.7l3.9-8.9 3.8 8.9zm22.6-1.6c-.3-.3-.7-.6-1.1-.9-.3-.2-.6-.4-.8-.4.1-.1.3-.2.5-.3.2-.2.5-.4.7-.7s.5-.7.6-1.2c.2-.5.3-1 .3-1.6 0-1.4-.5-2.5-1.5-3.4s-2.3-1.3-3.9-1.3h-7.3v18.5h7.5c1.8 0 3.2-.5 4.4-1.5 1.1-1 1.7-2.3 1.7-3.8 0-.7-.1-1.4-.4-2a2.65 2.65 0 0 0-.7-1.4m-10.6-2v-6.2h5.5c1.1 0 2 .3 2.6.8s.9 1.3.9 2.2c0 1-.3 1.8-.9 2.3-.6.6-1.5.8-2.6.8h-5.5zm5.8 8.9h-5.7v-7.2h5.7c1.3 0 2.4.3 3.1 1a3.69 3.69 0 0 1 1.1 2.7c0 1.1-.4 1.9-1.1 2.6-.7.5-1.8.9-3.1.9m20.9-17.1c-2.7 0-5 .9-6.9 2.8-1.9 1.8-2.9 4.1-2.9 6.7s1 4.9 2.9 6.7 4.2 2.8 6.9 2.8 5.1-.9 6.9-2.8c1.9-1.8 2.9-4.1 2.9-6.7s-1-4.9-2.9-6.7c-1.8-1.8-4.2-2.8-6.9-2.8m8.1 9.5c0 2.2-.8 4-2.3 5.5s-3.5 2.3-5.7 2.3-4.2-.8-5.7-2.3-2.3-3.4-2.3-5.5c0-2.2.8-4 2.3-5.5s3.5-2.3 5.7-2.3 4.2.8 5.7 2.3 2.3 3.3 2.3 5.5m21.2-9.2h-11.7v5.6c0 1.6-.1 3.1-.4 4.4-.2 1.4-.5 2.4-.8 3.2s-.6 1.5-1 2.1l-.8 1.2-.3.3h-1.2V33h1.8v-3.9h15V33h1.8v-5.6h-2.4V10.6zm-1.8 1.7v15.1h-10.9 0c.2-.3.5-.7.8-1.3s.6-1.3.9-2.2c.3-.8.6-1.9.8-3.3.2-1.3.3-2.8.3-4.4v-3.9h8.1zm37.7-1.7h-2.2l-5.5 7.5-5.5-7.4-.1-.1h-2.2l6.7 8.8-7.2 9.7h2.2l6.1-8.3 6 8.2.1.1h2.1l-7.2-9.7zM326 21.7l-6.2-11.1h-2l7.3 13-.8 1.4c-.5.9-1 1.6-1.5 2s-1.2.6-1.9.6c-.5 0-1-.1-1.4-.2l-.3-.1V29l.3.1c.1.1.3.1.6.2.3 0 .5.1.8.1 1.2 0 2.2-.3 3.1-1 .8-.6 1.6-1.7 2.3-3.1l7.3-14.6h-2l-5.6 11zm25.8-11.1h-11.7v5.6c0 1.6-.1 3.1-.4 4.4-.2 1.4-.5 2.4-.8 3.2s-.6 1.5-1 2.1l-.8 1.2-.3.3h-1.2V33h1.8v-3.9h15V33h1.8v-5.6h-2.4V10.6zm-1.8 1.7v15.1h-11 0c.2-.3.5-.7.8-1.3s.6-1.3.9-2.2c.3-.8.6-1.9.8-3.3.2-1.3.3-2.8.3-4.4v-3.9h8.2zm18.3-2c-2.7 0-5 .9-6.9 2.8-1.9 1.8-2.9 4.1-2.9 6.7s1 4.9 2.9 6.7 4.2 2.8 6.9 2.8 5-.9 6.9-2.8c1.9-1.8 2.9-4.1 2.9-6.7s-1-4.9-2.9-6.7c-1.8-1.8-4.2-2.8-6.9-2.8m0 17.3c-2.2 0-4.2-.8-5.7-2.3s-2.3-3.4-2.3-5.5c0-2.2.8-4.1 2.3-5.5 1.5-1.5 3.5-2.3 5.7-2.3s4.2.8 5.7 2.3 2.3 3.4 2.3 5.5c0 2.2-.8 4-2.3 5.5-1.5 1.6-3.4 2.3-5.7 2.3m38.2-17h-2.3l-8.9 9.3v-9.3h-1.8v9.3l-8.8-9.3h-.1-2.3l7.4 7.7-8 10.8h2.1l7-9.6 2.7 2.9v6.7h1.8v-6.7l2.7-2.9 6.9 9.5.1.1h2.1l-8-10.8zm7.3 9.7h9.2v-1.7h-9.2v-6.3h11.4v-1.7H412v18.5h13.4v-1.7h-11.6zm32.4 4.4c-.2.2-.4.5-.8.8l-1.3 1a6.78 6.78 0 0 1-1.9.8c-.8.2-1.6.3-2.4.3-2.2 0-4.2-.8-5.7-2.3s-2.3-3.4-2.3-5.5c0-2.2.8-4 2.3-5.5 1.6-1.5 3.5-2.3 5.7-2.3.8 0 1.6.1 2.4.4a6.78 6.78 0 0 1 1.9.8 6.42 6.42 0 0 1 1.3 1l.8.8a1.38 1.38 0 0 0 .3.4l.1.2 1.3-1.1-.4-.6c-.2-.3-.5-.6-1-1-.4-.4-.9-.8-1.5-1.2s-1.3-.7-2.2-1-1.8-.4-2.8-.4c-2.7 0-5 .9-6.9 2.8-1.9 1.8-2.9 4.1-2.9 6.7s1 4.9 2.9 6.7 4.2 2.8 6.9 2.8c1 0 1.9-.1 2.8-.4s1.7-.6 2.2-.9c.6-.4 1.1-.8 1.6-1.2l1-1c.1-.2.3-.3.3-.4l.1-.2-1.3-1-.5.5zm5.1-12.4h6.2v16.8h1.8V12.3h6.2v-1.7h-14.2zm31.7 8.2c-.3-.3-.7-.6-1.1-.9-.3-.2-.6-.4-.8-.4.1-.1.3-.2.5-.3.3-.2.5-.4.7-.7s.5-.7.6-1.2c.2-.5.3-1 .3-1.6 0-1.4-.5-2.5-1.5-3.4s-2.3-1.3-3.9-1.3h-7.3v18.5h7.5c1.8 0 3.2-.5 4.4-1.5 1.1-1 1.7-2.3 1.7-3.8 0-.7-.1-1.4-.4-2a2.65 2.65 0 0 0-.7-1.4m-10.5-.3h5.7c1.3 0 2.4.3 3.1 1s1.1 1.5 1.1 2.7c0 1.1-.4 1.9-1.1 2.6s-1.8 1-3.1 1h-5.7v-7.3zm0-1.7v-6.2h5.5c1.1 0 2 .3 2.6.8s.9 1.3.9 2.2c0 1-.3 1.8-.9 2.3-.6.6-1.5.8-2.7.8h-5.4zm20 1.8h9.2v-1.7h-9.2v-6.3h11.4v-1.7h-13.2v18.5h13.4v-1.7h-11.6zm30.3-1.5h-11.1v-8.2h-1.8v18.5h1.8v-8.5h11.1v8.5h1.8V10.6h-1.8zm22.3 0H534v-8.2h-1.8v18.5h1.8v-8.5h11.1v8.5h1.8V10.6h-1.8zm25.5-8.2h1.8v18.5h-1.8zm-9.3 7h-4.9v-7h-1.8v18.5h6.7c1.8 0 3.3-.6 4.5-1.7s1.8-2.5 1.8-4.1-.6-3-1.8-4.1-2.7-1.6-4.5-1.6m4.5 5.7c0 1.2-.4 2.2-1.2 2.9-.8.8-1.9 1.2-3.3 1.2h-4.9v-8.1h4.9c1.3 0 2.5.4 3.3 1.1.8.8 1.2 1.7 1.2 2.9m27.8-12.7h-2.2l-5.5 7.5-5.6-7.5h-2.2l6.7 8.8-7.2 9.7h2.1l6.2-8.3 6 8.2.1.1h2.1l-7.2-9.7zm34.4 0h-2.4l-10.2 10.8V10.6h-1.8v18.5h1.8v-5.3l4.1-4.3 6.9 9.5v.1h2.2l-8-10.8zm12.5 0h-7v18.5h1.8v-7h5.2c1.8 0 3.3-.6 4.5-1.7s1.8-2.5 1.8-4.1-.6-3-1.8-4.1-2.7-1.6-4.5-1.6m4.5 5.7c0 1.2-.4 2.2-1.2 2.9-.8.8-1.9 1.2-3.3 1.2h-5.2v-8.1h5.2c1.3 0 2.5.4 3.3 1.1.8.8 1.2 1.8 1.2 2.9m13.6-5.7l-8 18.5h2l2.3-5.3h9.2l2.3 5.3h1.9l-8-18.5h-1.7zm4.7 11.5h-7.7l3.9-8.9 3.8 8.9zm25.1 2.6l-.8.8-1.3 1a6.78 6.78 0 0 1-1.9.8c-.8.2-1.6.3-2.4.3-2.2 0-4.2-.8-5.7-2.3s-2.3-3.4-2.3-5.5c0-2.2.8-4 2.3-5.5 1.6-1.5 3.5-2.3 5.7-2.3.8 0 1.6.1 2.4.4a6.78 6.78 0 0 1 1.9.8 6.42 6.42 0 0 1 1.3 1l.8.8c.1.2.2.3.3.4l.1.2 1.3-1.1-.4-.6c-.2-.3-.5-.6-1-1-.4-.4-.9-.8-1.5-1.2s-1.3-.7-2.2-1-1.8-.4-2.8-.4c-2.7 0-5 .9-6.9 2.8-1.9 1.8-2.9 4.1-2.9 6.7s1 4.9 2.9 6.7 4.2 2.8 6.9 2.8c1 0 1.9-.1 2.8-.4s1.7-.6 2.2-.9c.6-.4 1.1-.8 1.6-1.2s.8-.8 1-1 .3-.3.3-.4l.1-.2-1.3-1-.5.5zm16-14.4c-2.7 0-5 .9-6.9 2.8-1.9 1.8-2.9 4.1-2.9 6.7s1 4.9 2.9 6.7 4.2 2.8 6.9 2.8 5-.9 7-2.8c1.9-1.8 2.9-4.1 2.9-6.7s-1-4.9-2.9-6.7a9.99 9.99 0 0 0-7-2.8m8.1 9.5c0 2.2-.8 4-2.3 5.5s-3.5 2.3-5.7 2.3-4.2-.8-5.7-2.3-2.3-3.4-2.3-5.5c0-2.2.8-4 2.3-5.5s3.5-2.3 5.7-2.3 4.2.8 5.7 2.3h0c1.5 1.5 2.3 3.3 2.3 5.5m15-1.5l7.4-7.7h-2.3l-10.3 10.8V10.6h-1.8v18.5h1.8v-5.3l4.1-4.3 6.9 9.5.1.1h2.1z"/></g><path d="M78.1 0C56.5 0 38 4.8 32.6 17.5c-4.3 10.2-10.7 10.1-19.4 14.3C5.3 35.5 0 42.4 0 53c0 23.2 25.5 40.7 66.9 40.7 44.6 0 83.7-19.7 83.7-52.9 0-17.5-17-40.8-72.5-40.8M53 22.7c-5.7 1.3-9.3-.5-9.4-4-.2-3.4 3.5-6.9 9.1-8.1 5.6-1.3 9.3.6 9.4 4 .2 3.4-3.3 6.8-9.1 8.1" fill="#f42534"/><g fill="#fff"><path d="M94.3 49.1c.8-.6 1-.6 1.6-1.4l.6-.9 5.2-6.2c.6-.6 1.1-1.2 1.6-1.9.6-.9 1.1-1.9 1.5-2.9.7-1.3 1.1-2.3 1.1-2.9 0-1.2-.7-2.1-1.4-2.7-.1-.1-.2-.1-.3-.2l-.8-.8c-.1-.1-.2-.1-.3-.2-.2 0-.4.2-.5.5v.7c0 .5-.2 1-.5 1.4l-1.5 2.6-.6 1.2c-.5.8-1.1 1.6-1.7 2.4-.2.1-.3.3-.5.4l-3.3 4.2c-.3.3-.6.7-1 1-.8.9-1.7 1.6-2.5 2.5-.1-.2-.1-.4-.2-.5l-.9-3.1v-.2c-.1-.4-.1-.9-.3-1.3l-.3-.6c-.1-.5-.3-.9-.4-1.4v-.1c-.3-1.6-1.1-3-1.9-4.4-.3-.5-.6-1-1.1-1.3-.9-.9-1.9-1.5-3.2-1.5-1.5 0-2.7.3-3.4.6-.3.1-.5.4-.5.7-.1.4-.2.7-.2 1.1 0 .2 0 .4.2.5.1.1.8.1.9.1s.1.1.1.1c.1.2 0 .4.2.6.1.1.1.2.2.3v.1c0 .2.1.3.3.4 0 .2.2.4.3.6.1.3.3.6.4 1 0 .3.1.6.1 1v.4c.1.3.3.6.4.9 0 .1 0 .3.1.5 0 .1.1.2.1.3.3.5.5 1 .8 1.5l.3.9c0 .1-.1.1-.1.2s.1.2.1.3c.1.4-.1.9.1 1.2.1.1.2.1.3.2s.1.2.2.3c.1.2.2.4.3.7l.6 1.8c0 .3.1.6.2.9.1.4.4.8.6 1.2.1.3.2.6.4 1l-.1.1c-.1 0-.2 0-.3.1l-.6.3c-.9.6-1.8 1.3-2.6 2-.2.2-.5.4-.7.6-3.7 2.5-7.5 4.5-11.4 5.7v-.1c-.7-.1-1.4.3-2.1.6a26.1 26.1 0 0 1-6.8.6c-.2-.2-.4-.3-.6-.4-.2-.3-.4-.5-.8-.6-.4-.2-.9-.2-1.3-.1-.3 0-.5 0-.7.1-.2 0-.3.1-.5.3-.1.2-.2.4-.2.6-.1 1.2.7 2.3 1.8 2.9.1 0 .2.1.3.1.7.4 1.5.8 2.6 1.1.1.1.3.2.4.3.2.1.4 0 .6 0h.3c.6.1 1.2.1 1.9.1h.5.1.4c3.6-.2 7.1-1.2 10.6-2.9a2.61 2.61 0 0 0 1.7-.7c1.5-.6 3-1.5 4.3-2.6.5-.4.9-.7 1.3-1.1 1.3-.9 2.5-1.8 3.7-2.8.2.3.4.6.5 1 0 .1 0 .2.1.2.2.4.4.8.7 1.1.2.3.4.5.6.7.1.1.1.1.2.1.4.5.9 1 1.4 1.4.2.3.4.6.7.9.4.4.9.6 1.5.7h.5c.8.3 1.6.4 2.5.4 3.7 0 4.3-2.1 4.3-2.1-3.7 0-5.9-3.2-7.6-7.4a4.53 4.53 0 0 0-.3-1.6 11.51 11.51 0 0 0 1.7-1.4"/><path d="M76.8 59.3c0-.7 0-1.3-.1-1.9.1 0 .1-.1.1-.1.1-.1.1-.2.1-.3 0-.6-.2-1.2-.6-1.7-.1-.5-.3-1-.5-1.5 0-.2 0-.5-.1-.7-.4-1-1.1-1.8-1.9-2.4-.1 0-.1-.1-.2-.1-.3-.3-.6-.6-.9-.8-.2-.2-.3-.5-.6-.6-.2-.1-.3-.1-.5-.2-.4-.3-.8-.5-1.2-.7l-.2-.2c-.7-.6-1.6-1-2.5-1h-.3c-.6-.2-1.2-.3-1.9-.5-.1-.1-.2-.1-.3-.2-.5-.3-1.2-.2-1.8-.2-.3 0-.7-.1-1-.1-.1-.1-.1-.1-.1-.2l.8-.3c1.1-.1 2-.9 3-1.4.1-.1.2-.1.3-.2s.3-.2.5-.2c.4-.2.8-.3 1.1-.5.6-.3 1-.8 1.4-1.3 1.6-1.3 2.8-2.7 3.5-4.3 0 0 0-.1.1-.1.4-.8.9-1.6.8-2.5 0-.4-.2-.8-.4-1.1v-.3c-.2-.7-.6-1.2-1.1-1.7-1.3-1.6-3.6-2.8-6.4-3.6-.8-.3-1.7-.6-2.5-.7-1-.1-2-.1-3 0h-.5c-2.6 0-5.2.3-7.4.8h-.2c-1.2.1-2.5.1-3.4.9-.1.1-.3.2-.4.3-.3.1-.5.2-.7.3-.1 0-.2.1-.3.1-2 .9-3.5 2.1-4.5 3.3h-.1c-.5.6-1 1.2-1.6 1.7l-.1.1v.3c.1.4.3.8.5 1.2 0 .3 0 .6.1.8s.2.5.4.7c.4.8.9 1.4 1.5 1.8.4.3.9.4 1.4.2.1 0 .1.1.2 0 .1 0 .3-.1.4-.1.5-.3.5-.9.8-1.4.1-.2.3-.4.4-.6.2-.3.5-.5.6-.8a14.88 14.88 0 0 1 2.2-2.1c.4-.3.9-.5 1.3-.7.3-.1.5-.2.7-.4.1-.1.2-.3.3-.4 1.9-1 4.3-1.7 7.3-1.8a.9.9 0 0 0 .5.1h.8c.4 0 .7 0 1.1.1.4 0 .8.1 1.2.2.9.2 1.6.5 2.2.9.1.2.3.3.4.5.1.1.2.3.4.3 0 .3.2.7.4.9l.2.2c0 .1.1.2.1.2 0 .2.2.4.3.5v.4c0 1.2-.7 2.4-1.8 3.4L63 41.2c-.2.1-.5.3-.7.4h-.4c-.6 0-1.1.6-1.6 1-.6.3-1.2.5-1.9.8-.4.1-.8.1-1.2.3a.76.76 0 0 1-.4.2l-4.1 1h0c-.2-.1-.4-.1-.7-.1-.4 0-.8.3-1.2.4-.2 0-.4.1-.5.1h-.4a.76.76 0 0 0-.4.2c-.4.3-.7.7-.9 1.1-.3.3-.5.7-.6 1.1-.3.4-.4.9-.4 1.4 0 .3 0 .5.1.8.1.2.4.4.6.3 0 0 .1 0 .1-.1h.5.1 0l1.8-.3c.3 0 .5.1.8.1s.5-.1.7-.3c.4 0 .7-.1 1.1-.1.6 0 1.1 0 1.7-.1h.2 1.6.2 1s.1 0 .1.1c.2.1.5 0 .8.1.2 0 .3.1.5.1.4.1.8.2 1.2.1.1 0 .2 0 .3-.1.9.1 1.7.3 2.5.6h0c.2.1.5.2.7.3h.1l.3.3c.1 0 .2.1.2.1.6.2 1.1.5 1.5.9.3.3.9.3 1.1.7h.1c1.5 1.5 2.4 3.5 2.4 6.3 0 3-.7 5.8-2 8.2V67l-1.2 1.9c-.1.2-.3.4-.5.6-.2.1-.3.2-.5.3-.1.1-.2.3-.3.4-.5.8-1 1.7-1.7 2.3l-.2.2a3.04 3.04 0 0 1-.7.5l-.6.3c-.2.1-.4.3-.6.5l-1.2.9-1.7 1.1-1.9.9c-.6.1-1.2.2-1.8.4l-1.1.6c-.2.1-.4.2-.5.3-.9.3-1.9.5-2.8.6-1.1.2-2.2.2-3.2.2-.2 0-.5 0-.7.1-.2 0-.3.1-.5.2h-.1c-1.4 0-2.7-.2-3.9-.6-1.3-.4-2.1-.2-2.3-.4-.2-.1-.1-.4-.3-.6-.4-.3-.7 0-.9-.6-.2-.5-.2-.6-.8-.7-.4-.1-1.1.1-1.3-.3-.1-.3.1-.7 0-1-.1-.4-.4-.9-.8-1.1.1-.2.3-.3.4-.4-.1-.1-.2-.1-.3-.2-.3-.3-.2-.4-.4-.8-.1-.2-.4-.4-.5-.6-.2-.7.5-1 .7-1.5V70c-.2-.6-1.1-.5-.5-1.5.3-.5.7-1.1 1.2-1.6 1.6-4 5.7-6.4 9.2-7.4.1 0 .1-.1.2-.1-.8-.9-1.7-2.5-1.8-2.7-.1-.1-1.6-1.4-1.7-1.4-1.1 0-1.5-.4-2.7-.1-.1-.2-.2-.4-.3-.5h-.6c-.7 0-1.5.1-2.2.2-.2 0-.4 0-.6.1-.5.1-.9.2-1.4.4-.1 0-.2.1-.3.1l-.8.2c-.6.1-1.1.3-1.7.6-.5.3-.9.6-1.4.9-.8.6-1.6 1.1-2.5 1.5-.1.1-.2.1-.3.2s-.1.2-.1.2 0 .1-.1.1c-.2.2-.5.3-.5.4-1 1.3-2.2 3-2.8 5.6l-.3.9v.1.6.2h0c-.1.6-.2 1.3-.2 1.9s0 1.3.1 1.9c0 .3.1.5.1.7.1.6.3 1.2.4 1.8 0 .9.5 1.8 1 2.6.1.1.2.1.3.2.5.7 1 1.4 1.6 2.1 3.3 3.4 8.5 5.5 15.3 5.8.5.1.9.3 1.3.4h.4 1c.3 0 .6 0 .8-.1s.5-.2.7-.3c.1 0 .3-.1.4-.1h.6c.8 0 1.7.2 2.4-.1.1-.1.2-.1.3-.2.8-.1 1.6-.3 2.3-.4l2.9-.3c.3 0 .7-.1 1-.2.2-.1.5-.2.7-.3a22.56 22.56 0 0 0 2.2-1.1c.2-.2.5-.3.7-.5h0c.1.1.3.1.4 0 .3-.1.6-.3.9-.4l2.4-1.3c.3-.2.6-.3.8-.5.7-.4 1.4-1 2-1.5.3-.2.6-.5.9-.7.6-.6 1.2-1.2 1.9-1.8.6-.6 1.3-1 1.9-1.7a4.44 4.44 0 0 0 .8-1.1l.3-.4c.2-.3.4-.5.5-.8l1.2-1.8c.3-.6.6-1.3.8-2 .3-.6.6-1.3.8-2 .1-.1.1-.2.2-.3.6-.9.8-2 .8-3.1l-.2-.1c.3-.6.4-1.3.4-2m65.4-7.4c0-.7-.1-1.2-.3-1.6-.2-.5-.9-.5-1.2.1-.8 1.6-2.8 4.9-6.3 7a.76.76 0 0 0-.4.2c-.4.2-.8.4-1.2.5-.2 0-.5 0-.7.1-.1.1-.3.2-.4.3-.2.1-.4 0-.6-.1-.4 0-.8.3-1.2.3-.5 0-1-.3-1.5-.1-.3.1-.6.5-.9.5h-.4l-2-.2h-.4c-5.4-1-9.2-4.3-11-6.4a56.18 56.18 0 0 0 7.9-1.8c.5-.1.9-.2 1.1-.4.8-.3 1.7-.6 2.5-1a1.69 1.69 0 0 0 1-.3l.2-.2c.2-.1.5-.2.7-.3.1 0 .1.1.1.1.3-.2.6-.3 1-.4.2 0 .3 0 .5-.1s.3-.2.5-.3c.5-.4.9-.7 1.4-1 0-.1.1-.2.1-.3.5-.3.9-.6 1.3-.9.3-.1.5-.2.7-.4.2-.3.7-.3.8-.7v-.2c1.8-1.7 2.8-3.5 2.8-5.4 0-2.2-1.3-3.5-2.4-4.3-.5-.4-1.1-.3-1.5.1h0c-.4.4-.8.7-1.2 1.1-.3.2-.5.4-.7.7-.5.5-1 1.1-1.5 1.7-.3.3-.5.6-.8.9a3.04 3.04 0 0 0-.5.7c-.8.8-1.7 1.5-2.7 2.3l-.7.3c-.2.1-.4.2-.5.4 0 .1-.1.2-.1.2-.1.1-.3.1-.5.2s-.3.3-.5.5c-.4.3-.9.6-1.3.9h-.4c-.1.3-.2.3-.5.5h0c-3.4 2.1-7 3.8-10.4 4.3.7-1 1.3-2.1 1.9-3.1l.3-.3c.2-.2.4-.3.5-.5s.1-.4.2-.6c0-.1 0-.1.1-.2.6-.9 1.1-1.8 1.7-2.7.1-.2.3-.4.4-.5.6-.8 1.1-1.6 1.5-2.4.7-1.3 1.5-2.6 2.2-3.8.4-.7.8-1.4 1.1-2.1.3-.5.5-.9.7-1.4a5.45 5.45 0 0 0 1.2-2.4c.3-.7.6-1.4.9-2 .1 0 .1 0 .2-.1 0-.1-.1-.1-.1-.2.1-.4.3-.7.4-1 .1-.2.3-.4.4-.6.2-.4.2-.8.2-1.2.2-.8.3-1.5.3-2.1s-.1-1.1-.2-1.5v-.2c-.1-.7-.5-1.3-1.1-1.8-.6-.7-1.4-1.1-2.1-1.3h0-.1c-.1 0-.2-.1-.2-.1-.2 0-.3-.1-.5-.1s-.4-.1-.6-.1-.3-.1-.5 0-.3.2-.5.3c-.3.3-.5.6-.5.9 0 .2.1.4.1.6.1.6 0 1.1-.2 1.7a15.95 15.95 0 0 1-1.2 2.7c-.1.2-.3.5-.3.7 0 .1 0 .3-.1.4l-.3.6c-.1.3 0 .6 0 .8-.3.7-.7 1.5-1 2.3-.2.2-.3.4-.5.6-.1.1-.2.3-.3.4-.1.2-.2.4-.3.7-.4 1.3-1 2.6-1.8 3.7-.4.5-.7 1.2-.9 1.8-.2.7-.4 1-.8 1.5-.2.2-.4.4-.5.7-.2.4-.3.9-.4 1.4 0 .1-.1.2-.1.3-.1.2-.3.5-.4.7-.6.9-1.3 1.7-1.7 2.7-.1.3-.2.5-.2.8l-1.8 3.4c-.9.9-1.5 2-2 3.1-.3.6-.5 1.3-.8 2-.4.7-.8 1.5-1.2 2.2-.5.7-1.1 1.3-1.4 2.2-.2.4-.3.9-.5 1.3-.3.6-.6 1.2-1 1.8-.7 1-1.4 1.9-1.8 3.1-.1.2-.1.4-.2.5-.6 1-1.1 2.1-1.6 3.1-.6.8-1.1 1.8-1.5 2.7-.1.2-.2.4-.2.5-.4.8-.8 1.5-1.1 2.2-.2.3-.3.6-.5.9-.1.2-.3.4-.4.7-.1.2-.1.5-.2.7-.2.5-.5 1-.7 1.4-.2.3-.4.5-.5.8-.3.5-.6 1.1-.5 1.7-.4.9-.6 1.8-.8 2.5-.2.4-.4.8-.4 1.2-.1.5.1 1 .2 1.5 0 .2.1.3.1.5.1.1.1.2.2.3.3.5.8.9 1.2 1.2.1.1.2.1.3.1a1.69 1.69 0 0 0 1 .3v-.5c.1-.1.2-.2.2-.4.4-1.1.8-2.2 1.3-3.3.4-.6.7-1.1 1-1.7.2-.4.2-.9.4-1.3.5-1.1 1.1-2.3 1.7-3.5.3-.3.5-.7.7-1.1l.6-1.5c.6-1.2 1.3-2.4 1.9-3.6.4-.5.8-1 1.1-1.6s.5-1.2.8-1.8c.4-.8.9-1.5 1.3-2.3.9-1.5 1.9-3 2.8-4.5.2-.3.4-.7.6-1 .3.2.6.5.9.8.6 1 1.6 1.8 2.8 2.1h.1c.4.3.8.5 1.2.8.2.2.4.3.6.5s.5.4.8.6c.2.1.5.2.7.4s.3.6.6.7c.1.1.3.1.5.1h1c.3.2.6.3.9.4 0 .1.1.2.3.3.5.1 1 .2 1.4.2.6.2 1.2.4 1.9.5.4.3 1 .2 1.5.4l.6.3c.5.2 1.1.1 1.6 0 .2 0 .4-.1.7-.1 1.8-.3 5.2-.7 7.3-.9.1 0 .3-.1.7-.2.7-.2 1.7-.6 2-.8 6.4-3.1 8.8-9.2 8.8-11.4"/></g></svg>